<?xml version="1.0" encoding="UTF-8"?>
<svg xmlns="http://www.w3.org/2000/svg" viewBox="0 0 639 160" role="img" aria-label="Armin">
  <g transform="translate(5.587 154.000) scale(0.201087)">
    <path d="M245 0L12 0L12-58L91-64L302-667L408-667L622-62L697-58L697 0L388 0L388-58L480-63L434-200L202-200L156-64L245-58L245 0M221-259L415-259L312-568L291-469L221-259M1039 0L750 0L750-53L820-60Q820-63 821-67Q821-104 821-143L821-315Q821-335 820.50-354.50Q820-374 820-394L744-399L744-447L899-502L929-497L940-364L947-363L947-360L952-360Q967-407 988.50-439.50Q1010-472 1036-489Q1062-506 1094-506Q1126-506 1147.50-489Q1169-472 1176-446Q1174-412 1155.50-389Q1137-366 1104-366Q1081-366 1063.50-376Q1046-386 1032-403L1029-406Q1004-389 985-366Q962-339 947-307L947-143Q947-104 948-67Q948-64 948-61L1039-53L1039 0M1485 0L1224 0L1224-53L1294-60Q1294-63 1295-67Q1295-104 1295-143L1295-355Q1295-374 1294-394L1219-399L1219-447L1372-502L1402-497L1415-400L1421-400Q1442-431 1467.50-455Q1493-479 1524.50-493.50Q1556-508 1594-508Q1665-508 1701-465Q1722-439 1731-400L1736-400Q1758-433 1784-457.50Q1810-482 1841-495Q1872-508 1909-508Q1981-508 2017.50-465Q2054-422 2054-335L2054-143Q2054-104 2055-67Q2055-63 2055-60L2123-53L2123 0L1864 0L1864-53L1928-59Q1928-63 1929-67Q1929-104 1929-143L1929-313Q1929-370 1911.50-392.50Q1894-415 1854-415Q1831-415 1808-407.50Q1785-400 1762-386Q1749-377 1736-367Q1737-351 1737-334L1737-215Q1737-181 1737.50-142.50Q1738-104 1738-67Q1738-63 1738-59L1803-53L1803 0L1547 0L1547-53L1612-59Q1612-63 1612-67Q1612-104 1612.50-142.50Q1613-181 1613-215L1613-313Q1613-368 1595.50-391.50Q1578-415 1538-415Q1515-415 1491.50-407Q1468-399 1445-385Q1433-377 1421-369L1421-215Q1421-182 1421.50-143Q1422-104 1422-67Q1422-63 1422-59L1485-53L1485 0M2451 0L2185 0L2185-53L2255-60Q2255-63 2256-67Q2256-104 2256-143L2256-333Q2256-363 2255-394L2179-399L2179-447L2351-502L2383-497L2382-366L2382-143Q2382-104 2383-67Q2383-63 2383-59L2451-53L2451 0M2316-588Q2284-588 2261.50-609.50Q2239-631 2239-662Q2239-694 2261.50-715Q2284-736 2316-736Q2349-736 2371-715Q2393-694 2393-662Q2393-631 2371-609.50Q2349-588 2316-588M2782 0L2521 0L2521-53L2591-60Q2591-63 2592-67Q2592-104 2592-143L2592-315Q2592-335 2591.50-354.50Q2591-374 2591-394L2516-399L2516-447L2669-502L2699-497L2711-403L2720-403Q2742-434 2768.50-457.50Q2795-481 2826.50-494.50Q2858-508 2895-508Q2966-508 3003.50-464.50Q3041-421 3041-334L3041-215Q3041-181 3041.50-142.50Q3042-104 3042-67Q3042-63 3042-59L3110-53L3110 0L2849 0L2849-53L2915-59Q2915-63 2915-67Q2915-104 2915.50-142.50Q2916-181 2916-215L2916-315Q2916-370 2897.50-392.50Q2879-415 2839-415Q2816-415 2792.50-407.50Q2769-400 2745-386Q2732-377 2718-367L2718-215Q2718-182 2718.50-143Q2719-104 2719-67Q2719-63 2719-59L2782-53" fill="#100f0f" />
  </g>
</svg>
